<?xml version="1.0" standalone="no"?>
<!DOCTYPE svg PUBLIC "-//W3C//DTD SVG 20010904//EN"
 "http://www.w3.org/TR/2001/REC-SVG-20010904/DTD/svg10.dtd">
<svg version="1.0" xmlns="http://www.w3.org/2000/svg"
 width="500.000000pt" height="500.000000pt" viewBox="0 0 500.000000 500.000000"
 preserveAspectRatio="xMidYMid meet">

<g transform="translate(0.000000,500.000000) scale(0.100000,-0.100000)"
fill="#000000" stroke="none">
<path d="M1505 2699 c-3 -8 -4 -98 -3 -199 l3 -185 33 -3 32 -3 0 105 c0 58 3
106 8 106 4 0 25 -25 46 -55 69 -97 66 -96 127 -13 l54 72 5 -104 5 -105 33
-3 32 -3 0 200 c0 112 -4 201 -9 201 -5 0 -46 -49 -91 -110 -45 -60 -85 -110
-89 -110 -3 0 -37 44 -76 96 -84 114 -102 133 -110 113z"/>
<path d="M3880 2625 c0 -33 -4 -45 -15 -45 -9 0 -15 -9 -15 -25 0 -16 6 -25
15 -25 12 0 15 -16 15 -84 0 -74 3 -88 23 -110 21 -24 38 -30 85 -27 33 1 26
43 -8 51 -24 6 -25 10 -28 88 l-3 82 31 0 c27 0 31 3 28 23 -2 16 -11 23 -30
25 -26 3 -28 7 -28 48 0 44 0 44 -35 44 -35 0 -35 0 -35 -45z"/>
<path d="M2049 2580 c-70 -21 -99 -60 -99 -135 0 -94 55 -141 162 -136 14 1
41 13 58 27 28 24 30 28 15 44 -15 16 -18 16 -54 -2 -45 -22 -84 -16 -106 15
-30 42 -21 47 85 47 95 0 100 1 100 21 0 76 -87 141 -161 119z m75 -66 c27
-27 18 -34 -44 -34 -33 0 -60 3 -60 7 0 3 7 15 17 25 20 22 66 24 87 2z"/>
<path d="M2356 2579 c-115 -33 -130 -209 -21 -255 44 -18 73 -18 109 1 36 19
36 19 36 -10 0 -58 -78 -85 -142 -47 -28 16 -30 16 -44 -2 -20 -29 -19 -32 29
-55 81 -39 184 -17 207 45 6 14 10 93 10 175 0 141 -1 149 -20 149 -10 0 -23
-7 -28 -16 -8 -15 -12 -15 -33 -1 -33 20 -69 26 -103 16z m77 -61 c52 -27 62
-83 22 -123 -39 -40 -96 -32 -120 16 -21 40 -19 57 14 90 32 31 50 35 84 17z"/>
<path d="M2667 2580 c-46 -9 -51 -13 -42 -39 6 -19 12 -20 58 -16 57 7 71 1
81 -32 7 -22 5 -23 -47 -23 -85 0 -132 -50 -107 -115 19 -50 108 -64 155 -25
9 8 14 6 19 -5 3 -8 15 -15 26 -15 19 0 20 6 20 108 0 123 -9 145 -68 162 -41
11 -41 11 -95 0z m97 -159 c12 -18 -13 -60 -39 -67 -46 -11 -77 42 -37 65 21
13 69 14 76 2z"/>
<path d="M3015 2583 c-10 -3 -29 -12 -42 -20 -21 -14 -23 -14 -23 1 0 10 -9
16 -25 16 l-25 0 0 -136 0 -135 33 3 32 3 5 98 c5 100 12 116 51 117 37 0 49
-33 49 -129 l0 -92 33 3 32 3 5 98 c5 100 12 116 52 117 34 0 48 -39 48 -132
l0 -88 30 0 30 0 0 106 c0 58 -5 114 -11 126 -24 44 -110 55 -154 18 -10 -8
-20 -8 -37 3 -30 19 -58 26 -83 20z"/>
<path d="M3445 2584 c-11 -3 -30 -7 -43 -10 -17 -3 -22 -10 -20 -27 3 -20 9
-22 63 -22 53 0 60 -3 72 -25 12 -25 12 -25 -45 -31 -31 -3 -64 -9 -74 -13
-23 -10 -42 -60 -34 -91 13 -53 98 -76 151 -41 22 14 25 15 25 1 0 -9 9 -15
25 -15 25 0 25 0 25 100 0 106 -10 142 -44 158 -27 14 -75 21 -101 16z m78
-161 c9 -16 -13 -53 -37 -65 -20 -8 -29 -8 -41 2 -20 17 -19 47 3 59 20 12 69
14 75 4z"/>
<path d="M3748 2571 c-30 -15 -38 -16 -42 -5 -3 8 -15 14 -26 14 -19 0 -20 -6
-20 -135 l0 -135 30 0 30 0 0 78 c0 91 14 126 53 130 35 4 60 48 36 63 -19 12
-19 12 -61 -10z"/>
</g>
</svg>
